<?xml version="1.0" encoding="utf-8"?>
<!-- Generator: Adobe Illustrator 15.0.2, SVG Export Plug-In . SVG Version: 6.00 Build 0)  -->
<!DOCTYPE svg PUBLIC "-//W3C//DTD SVG 1.1//EN" "http://www.w3.org/Graphics/SVG/1.1/DTD/svg11.dtd">
<svg version="1.1" id="Layer_1" xmlns="http://www.w3.org/2000/svg" xmlns:xlink="http://www.w3.org/1999/xlink" x="0px" y="0px"
	 width="152px" height="60px" viewBox="0 0 152 60" enable-background="new 0 0 152 60" xml:space="preserve">
<g>
	<g>
		<path fill="#7D8589" d="M-234.227,109.229h-1.341V60.941l-18.033,48.287h-1.342l-17.884-48.287v48.287h-1.341V57.067h1.341
			l18.629,49.925l18.629-49.925h1.341V109.229z"/>
		<path fill="#7D8589" d="M-171.336,109.229h-1.341l-0.074-50.671h-14.084v-1.49h29.955v1.49h-14.456V109.229z"/>
		<path fill="#7D8589" d="M-124.167,109.229h-26.9V57.067h1.415v50.671h25.485V109.229z"/>
	</g>
	<g>
		<g>
			<g>
				<path fill-rule="evenodd" clip-rule="evenodd" fill="#557281" d="M-218.172,60.71c-0.975,0.666-5.063,3.461-5.063,3.461
					l2.569,7.102c-1.096,1.321-2.901,3.698-3.721,6.259l-7.717,0.418c-0.184,0.983-1.303,6.035-1.303,6.035l7.232,3.056
					c0.245,4.119,0.05,4.252,1.525,7.244l-5.104,5.49c0.666,0.975,3.46,5.063,3.46,5.063l7.103-2.568
					c1.127,1.229,3.698,2.9,6.197,4.048l0.285,7.521c1.18,0.052,6.23,1.17,6.23,1.17l2.995-6.905l0.194-0.132
					c1.701-0.021,4.704-0.645,7.112-1.72l5.489,5.104c0.974-0.664,5.063-3.46,5.063-3.46l-2.764-6.97l0.194-0.132
					c1.229-1.128,2.9-3.698,3.854-6.065l7.716-0.417c0.052-1.177,0.975-6.097,0.975-6.097l-6.905-2.995
					c-0.019-1.701-0.448-4.836-1.522-7.245l4.972-5.685c-0.533-0.779-3.463-5.062-3.463-5.062l-6.968,2.764
					c-1.322-1.098-3.832-3.096-6.393-3.917l-0.284-7.521c-1.117-0.379-6.034-1.304-6.034-1.304l-3.19,7.038
					c-3.924,0.112-4.119,0.245-7.245,1.525L-218.172,60.71z M-190.442,76.611c5.192,7.594,3.222,18.087-4.568,23.411
					c-7.592,5.193-18.085,3.223-23.277-4.372c-5.326-7.789-3.354-18.28,4.239-23.473C-206.26,66.853-195.768,68.822-190.442,76.611z
					"/>
			</g>
			<polygon fill="#557281" points="-194.925,89.49 -185.316,89.479 -186.815,94.209 -198.184,93.649 			"/>
		</g>
		<g>
			<defs>
				<rect id="SVGID_1_" x="-217.2" y="89.479" width="26.922" height="11.635"/>
			</defs>
			<clipPath id="SVGID_2_">
				<use xlink:href="#SVGID_1_"  overflow="visible"/>
			</clipPath>
			<path clip-path="url(#SVGID_2_)" fill="#557281" d="M-194.346,79.104c-3.748-5.482-10.981-7.24-16.92-3.18
				c-5.48,3.75-6.471,11.128-2.722,16.61s10.981,7.239,16.464,3.49C-191.586,91.965-190.597,84.584-194.346,79.104L-194.346,79.104z
				"/>
		</g>
		<g>
			<defs>
				<rect id="SVGID_3_" x="-218.32" y="71.813" width="30.386" height="11.901"/>
			</defs>
			<clipPath id="SVGID_4_">
				<use xlink:href="#SVGID_3_"  overflow="visible"/>
			</clipPath>
			<path clip-path="url(#SVGID_4_)" fill="#557281" d="M-194.367,79.314c-3.746-5.482-10.98-7.24-16.919-3.18
				c-5.48,3.75-6.471,11.128-2.722,16.61c3.749,5.481,10.981,7.239,16.464,3.49C-191.606,92.175-190.616,84.794-194.367,79.314
				L-194.367,79.314z"/>
		</g>
	</g>
</g>
<g>
	<g>
		<path fill="#FFFFFF" d="M-256.431,304.51h-2.025v-72.9l-27.225,72.9h-2.025l-27-72.9v72.9h-2.024v-78.75h2.024l28.125,75.375
			l28.125-75.375h2.025V304.51z"/>
		<path fill="#FFFFFF" d="M-161.48,304.51h-2.025l-0.113-76.5h-21.262v-2.25h45.225v2.25h-21.824V304.51z"/>
		<path fill="#FFFFFF" d="M-90.27,304.51h-40.611v-78.75h2.137v76.5h38.475V304.51z"/>
	</g>
	<g>
		<g>
			<g>
				<path fill-rule="evenodd" clip-rule="evenodd" fill="#B8D4E5" d="M-232.193,231.262c-1.472,1.004-7.645,5.225-7.645,5.225
					l3.879,10.723c-1.655,1.994-4.38,5.582-5.618,9.449l-11.65,0.631c-0.278,1.484-1.967,9.111-1.967,9.111l10.919,4.613
					c0.369,6.219,0.076,6.42,2.302,10.938l-7.706,8.289c1.005,1.471,5.225,7.645,5.225,7.645l10.723-3.879
					c1.702,1.855,5.583,4.379,9.355,6.111l0.43,11.355c1.781,0.078,9.406,1.768,9.406,1.768l4.521-10.426l0.293-0.199
					c2.568-0.031,7.102-0.973,10.736-2.596l8.289,7.705c1.469-1.004,7.645-5.225,7.645-5.225l-4.174-10.521l0.295-0.199
					c1.855-1.703,4.379-5.584,5.818-9.158l11.648-0.629c0.078-1.777,1.473-9.205,1.473-9.205l-10.426-4.521
					c-0.029-2.568-0.678-7.301-2.299-10.938l7.506-8.582c-0.805-1.176-5.229-7.645-5.229-7.645l-10.52,4.174
					c-1.996-1.656-5.785-4.674-9.65-5.912l-0.43-11.355c-1.686-0.572-9.109-1.967-9.109-1.967l-4.816,10.625
					c-5.924,0.168-6.219,0.369-10.938,2.303L-232.193,231.262z M-190.328,255.268c7.84,11.465,4.865,27.307-6.896,35.346
					c-11.463,7.84-27.304,4.865-35.143-6.602c-8.041-11.76-5.064-27.6,6.4-35.438C-214.208,240.533-198.367,243.508-190.328,255.268
					z"/>
			</g>
			<polygon fill="#B8D4E5" points="-197.096,274.711 -182.588,274.695 -184.852,281.834 -202.014,280.99 			"/>
		</g>
		<g>
			<defs>
				<rect id="SVGID_5_" x="-230.726" y="274.695" width="40.646" height="17.564"/>
			</defs>
			<clipPath id="SVGID_6_">
				<use xlink:href="#SVGID_5_"  overflow="visible"/>
			</clipPath>
			<path clip-path="url(#SVGID_6_)" fill="#B8D4E5" d="M-196.221,259.031c-5.658-8.277-16.578-10.932-25.546-4.801
				c-8.273,5.662-9.77,16.801-4.109,25.076s16.579,10.93,24.856,5.27C-192.055,278.447-190.561,267.305-196.221,259.031
				L-196.221,259.031z"/>
		</g>
		<g>
			<defs>
				<rect id="SVGID_7_" x="-232.415" y="248.023" width="45.876" height="17.969"/>
			</defs>
			<clipPath id="SVGID_8_">
				<use xlink:href="#SVGID_7_"  overflow="visible"/>
			</clipPath>
			<path clip-path="url(#SVGID_8_)" fill="#B8D4E5" d="M-196.252,259.348c-5.656-8.275-16.578-10.93-25.546-4.801
				c-8.272,5.662-9.769,16.801-4.109,25.076c5.66,8.275,16.581,10.93,24.858,5.27C-192.084,278.764-190.59,267.621-196.252,259.348
				L-196.252,259.348z"/>
		</g>
	</g>
</g>
<g>
	<g>
		<path fill="#7D8589" d="M40.94,53.19H39.6V4.903L21.566,53.19h-1.342L2.341,4.903V53.19H1V1.028h1.341l18.63,49.926L39.6,1.028
			h1.341V53.19z"/>
		<path fill="#7D8589" d="M103.831,53.19h-1.341l-0.074-50.672H88.332v-1.49h29.955v1.49h-14.456V53.19z"/>
		<path fill="#7D8589" d="M151,53.19h-26.9V1.028h1.415V51.7H151V53.19z"/>
	</g>
	<g>
		<g>
			<g>
				<path fill-rule="evenodd" clip-rule="evenodd" fill="#557281" d="M56.994,4.673c-0.975,0.665-5.062,3.461-5.062,3.461
					l2.568,7.102c-1.096,1.32-2.9,3.698-3.721,6.259l-7.717,0.418c-0.185,0.983-1.303,6.035-1.303,6.035l7.232,3.056
					c0.244,4.119,0.05,4.252,1.524,7.244l-5.104,5.49c0.666,0.975,3.461,5.063,3.461,5.063l7.102-2.568
					c1.128,1.229,3.698,2.9,6.197,4.048l0.285,7.521c1.18,0.052,6.229,1.17,6.229,1.17l2.994-6.905l0.195-0.132
					c1.7-0.021,4.703-0.645,7.111-1.72l5.489,5.104c0.974-0.664,5.063-3.46,5.063-3.46l-2.764-6.97l0.194-0.132
					c1.229-1.128,2.9-3.698,3.854-6.065l7.716-0.417c0.052-1.177,0.975-6.097,0.975-6.097l-6.905-2.995
					c-0.019-1.701-0.448-4.836-1.522-7.244l4.972-5.686c-0.533-0.778-3.463-5.062-3.463-5.062l-6.968,2.765
					c-1.322-1.098-3.832-3.097-6.393-3.917l-0.284-7.52c-1.117-0.38-6.034-1.305-6.034-1.305l-3.19,7.038
					c-3.923,0.112-4.118,0.245-7.244,1.525L56.994,4.673z M84.725,20.573c5.192,7.594,3.222,18.087-4.568,23.411
					c-7.593,5.193-18.085,3.223-23.277-4.372c-5.326-7.789-3.354-18.28,4.24-23.473C68.907,10.814,79.399,12.784,84.725,20.573z"/>
			</g>
			<polygon fill="#557281" points="80.242,33.452 89.851,33.441 88.352,38.171 76.983,37.611 			"/>
		</g>
		<g>
			<defs>
				<rect id="SVGID_9_" x="57.967" y="33.441" width="26.922" height="11.635"/>
			</defs>
			<clipPath id="SVGID_10_">
				<use xlink:href="#SVGID_9_"  overflow="visible"/>
			</clipPath>
			<path clip-path="url(#SVGID_10_)" fill="#557281" d="M80.821,23.065c-3.748-5.481-10.981-7.239-16.921-3.18
				c-5.479,3.751-6.471,11.129-2.722,16.61s10.981,7.239,16.464,3.49C83.581,35.927,84.57,28.546,80.821,23.065L80.821,23.065z"/>
		</g>
		<g>
			<defs>
				<rect id="SVGID_11_" x="56.848" y="15.775" width="30.386" height="11.901"/>
			</defs>
			<clipPath id="SVGID_12_">
				<use xlink:href="#SVGID_11_"  overflow="visible"/>
			</clipPath>
			<path clip-path="url(#SVGID_12_)" fill="#557281" d="M80.8,23.276c-3.746-5.482-10.98-7.24-16.919-3.18
				c-5.48,3.75-6.472,11.128-2.723,16.609c3.75,5.481,10.981,7.239,16.465,3.49C83.561,36.137,84.551,28.757,80.8,23.276
				L80.8,23.276z"/>
		</g>
	</g>
</g>
</svg>
